<svg width="16" height="17" viewBox="0 0 16 17" fill="none" xmlns="http://www.w3.org/2000/svg">
<path fill-rule="evenodd" clip-rule="evenodd" d="M10.9944 5C10.9944 6.65685 9.65124 8 7.99438 8C6.33753 8 4.99438 6.65685 4.99438 5C4.99438 3.34315 6.33753 2 7.99438 2C9.65124 2 10.9944 3.34315 10.9944 5ZM12.9944 5C12.9944 7.76142 10.7558 10 7.99438 10C5.23296 10 2.99438 7.76142 2.99438 5C2.99438 2.23858 5.23296 0 7.99438 0C10.7558 0 12.9944 2.23858 12.9944 5ZM3.01886 10.2903C3.15715 10.1835 3.32472 10.1177 3.49934 10.1118C4.01043 10.0945 4.26994 10.2136 4.46956 10.4393C4.85474 10.8748 4.60163 11.5818 4.14859 11.9462C3.31571 12.616 2.67173 13.4973 2.30043 14.4998H13.6874C13.3162 13.4975 12.6724 12.6164 11.8398 11.9466C11.3867 11.5822 11.1338 10.875 11.519 10.4395C11.7187 10.2137 11.9781 10.0947 12.4892 10.1121C12.6637 10.1181 12.8312 10.1839 12.9694 10.2906C14.5907 11.5427 15.7096 13.3928 15.9806 15.502C16.051 16.0498 15.5965 16.4998 15.0442 16.4998H0.943575C0.391291 16.4998 -0.063179 16.0498 0.00721527 15.502C0.278284 13.3927 1.39736 11.5424 3.01886 10.2903Z" fill="#222222"/>
</svg>
