<svg width="21" height="22" viewBox="0 0 21 22" fill="none" xmlns="http://www.w3.org/2000/svg">
<path d="M14.4375 13.9167H13.5488L13.2338 13.5904C14.3363 12.2129 15 10.4246 15 8.47917C15 4.14125 11.7262 0.625 7.6875 0.625C3.64875 0.625 0.375 4.14125 0.375 8.47917C0.375 12.8171 3.64875 16.3333 7.6875 16.3333C9.49875 16.3333 11.1637 15.6204 12.4462 14.4362L12.75 14.7746V15.7292L18.375 21.7587L20.0512 19.9583L14.4375 13.9167ZM7.6875 13.9167C4.88625 13.9167 2.625 11.4879 2.625 8.47917C2.625 5.47042 4.88625 3.04167 7.6875 3.04167C10.4888 3.04167 12.75 5.47042 12.75 8.47917C12.75 11.4879 10.4888 13.9167 7.6875 13.9167Z" fill="#737A81"/>
</svg>
